<svg xmlns="http://www.w3.org/2000/svg" version="1.1" xmlns:xlink="http://www.w3.org/1999/xlink" xmlns:svgjs="http://svgjs.dev/svgjs" width="400" height="400"><svg id="SvgjsSvg1040" version="1.1" width="400" height="400" viewBox="0, 0, 400,400" sodipodi:docname="icon_v2.svg" inkscape:version="1.3.2 (091e20e, 2023-11-25, custom)" xmlns:inkscape="http://www.inkscape.org/namespaces/inkscape" xmlns:sodipodi="http://sodipodi.sourceforge.net/DTD/sodipodi-0.dtd" xmlns="http://www.w3.org/2000/svg" xmlns:svg="http://www.w3.org/2000/svg">
  <defs id="SvgjsDefs1039"></defs>
  <sodipodi:namedview id="SvgjsSodipodi:namedview1038" pagecolor="#ffffff" bordercolor="#000000" borderopacity="0.25" inkscape:showpageshadow="2" inkscape:pageopacity="0.0" inkscape:pagecheckerboard="0" inkscape:deskcolor="#d1d1d1" inkscape:zoom="1.4513367" inkscape:cx="284.22075" inkscape:cy="196.02619" inkscape:window-width="1920" inkscape:window-height="1017" inkscape:window-x="-8" inkscape:window-y="-8" inkscape:window-maximized="1" inkscape:current-layer="svgg"></sodipodi:namedview>
  <g id="SvgjsG1037" style="display:inline">
    <path id="SvgjsPath1036" d="m 248.217,34.27 c -3.291,0.084 -4.46605,0.333709 -6.2,0.469 -7.86634,0.613767 -14.75408,4.733083 -23.27,19.756 -1.73749,3.478591 4.42796,19.926516 -6.73,25.696 -7.33241,-1.3406 -15.28567,-3.20454 -22.617,-5.415 -18.99797,-2.633894 -33.08591,0.16724 -38.446,2.102 -3.35753,-1.686011 -6.73512,-3.331933 -10.108,-4.987 -1.41259,1.353777 -3.97785,2.032305 -5.3934,3.378362 0,2.308938 -12.79454,-4.876955 -33.9576,17.076638 -5.133,5.325 -5.874,7.092 -5.957,14.206 0.687155,4.6627 -2.227789,5.26827 -4.874,8.343 1.156511,1.92544 1.430342,4.20432 1.84,6.376 -8.679982,11.27731 -8.123654,26.28806 -8.227,39.764 -3.499047,3.1652 -21.29862,1.0732 -44.877,3.649 -19.18305,4.56163 -24.171647,10.10644 -30.817,26.716 -1.7963761,7.13269 -3.4089682,36.4146 13.896,75 18.657802,41.0833 48.490272,78.6798 90.272,92.955 13.99225,0.58825 15.60131,-0.31213 26.169,-4.959 7.67518,-4.03117 8.78418,-11.32417 9.197,-18.812 11.63419,-13.21962 28.68465,-17.64505 45.562,-19.74 6.04922,9.99145 15.45618,16.46629 24.892,22.967 4.53062,3.09052 13.14723,7.33977 26.427,12.385 20.76923,7.56981 43.92907,8.88716 65.66217,5.85562 3.36779,-0.47432 7.84138,-3.06256 11.26283,-1.98862 3.6851,2.84547 11.8996,0.62627 17.276,-0.663 17.20143,-7.5226 32.80436,-18.91574 46.783,-31.309 0.01,-0.169 0.451,-0.979 0.981,-1.8 1.517,-2.35 1.863,-4.933 1.442,-10.756 -0.592,-8.183 -0.894,-11.107 -1.192,-11.535 -1.722,-2.478 -1.716,-10.162 0.012,-14 7.24366,-16.09487 -3.42881,-73.25967 -40.679,-115.017 -7.35249,-8.24852 -2.54953,-10.54653 -5.341,-13.338 -2.16946,-7.00357 5.74628,-9.11665 10.223,-11.49 1.06699,-1.72866 35.372,5.61538 35.372,-11.403 0,-0.497 0.18,-1.016 0.4,-1.152 1.06428,-0.65772 2.01418,-13.62266 -13.231,-32.529 -12.38375,-15.35097 -65.22159,-58.581916 -105.3,-65.329 -0.84,-0.445 -11.674,-0.695 -20.452,-0.472" stroke="none" fill="#2c0605" fill-rule="evenodd" sodipodi:nodetypes="cscccccsccccccccccccsccsscsccccscssccc" style="display: inline; --darkreader-inline-fill: #230504; --darkreader-inline-stroke: none;" data-darkreader-inline-fill="" data-darkreader-inline-stroke=""></path>
    <path id="SvgjsPath1035" style="display: inline; fill: rgb(254, 188, 20); fill-opacity: 1; --darkreader-inline-fill: #fec228;" d="m 97.21,205.048 c -6.095,4.516 -14.02,8.967 -18.41,10.342 -3.676,1.151 -4.626,3.33 -2.534,5.815 1.65,1.962 2.547,1.612 11.545,-4.509 11.912,-8.102 15.256,-11.18 14.445,-13.295 -0.426,-1.109 -2.035,-0.584 -5.046,1.647 m 5.99,6.63 c -5.829,5.476 -14.152,10.829 -19.507,12.546 -6.268,2.01 -6.186,2.519 2.932,18.223 5.837,10.055 5.782,10.012 9.24,7.155 1.064,-0.879 4.455,-3.492 7.535,-5.807 11.22,-8.434 13.243,-10.066 17.316,-13.976 6.271,-6.02 6.377,-6.517 1.938,-9.094 -3.706,-2.151 -6.827,-4.554 -10.917,-8.408 -4.29,-4.041 -4.87,-4.084 -8.537,-0.639" data-darkreader-inline-fill=""></path>
    <path id="SvgjsPath1034" style="display: inline; fill: rgb(252, 182, 63); fill-opacity: 1; --darkreader-inline-fill: #fcb946;" d="m 124.6,84.318 c -4.233,2.037 -21.062,15.602 -22.145,17.849 -1.047,2.172 0.932,8.241 3.253,9.974 1.463,1.092 2.446,0.598 7.892,-3.97 6.845,-5.742 13.383,-10.488 21.916,-15.913 3.67,-2.333 3.09,-4.18 -2.178,-6.943 -4.382,-2.299 -5.718,-2.451 -8.738,-0.997 m 164.965,3.931 c 3.773,13.588 -11.383,29.37 -27.737,28.884 -3.86112,0.46978 -6.33872,-1.08173 -9.66,-2.788 -2.842,-1.46 -7.328,-3.508 -9.968,-4.551 -2.64,-1.043 -8.4,-3.518 -12.8,-5.5 -4.4,-1.981 -10.16,-4.288 -12.8,-5.126 -2.64,-0.838 -9.03,-2.866 -14.2,-4.507 -13.584,-4.311 -31.53,-7.854 -37.222,-7.348 -9.855,0.875 -59.066,37.295 -64.164,47.487 -2.072,4.141 -3.609,13.327 -3.18,19 0.658,8.696 0.566,9.578 -1.394,13.478 -2.628,5.227 -2.734,4.889 6.289,20.05 3.944,6.627 7.766,11.686 15.119,20.01 6.919,7.832 9.22,10.717 10.11,12.675 0.353,0.777 1.266,2.383 2.028,3.569 1.958,3.046 1.922,5.231 -0.155,9.434 -4.854,9.822 -26.058,24.479 -34.271,23.69 -8.092,-0.778 -21.151,-16.463 -27.9,-33.512 -4.204,-10.618 -8.46,-29.299 -8.46,-37.13 0,-5.221 -0.823,-5.647 -9.476,-4.901 -20.303,1.75 -28.348,11.442 -25.099,30.237 5.192,30.035 16.697,55.019 38.447,83.494 24.503,32.08 45.536,47.7 60.817,45.167 4.98,-0.826 5.741,-1.521 6.686,-6.102 3.746,-18.173 26.881,-32.312 58.242,-35.596 6.737,-0.706 12.54,0.547 22.447,4.843 6.158,2.671 7.021,4.181 3.323,5.817 -4.065,1.798 -3.331,2.848 6.613,9.452 24.902,16.54 49.661,22.517 85.114,20.548 6.663,-0.37 15.393,-0.617 19.4,-0.548 l 7.286,0.125 3.2,-1.633 c 8.285,-4.227 31.269,-18.756 34.265,-21.661 3.636,-3.524 3.699,-8.614 0.156,-12.536 -3.422,-3.787 -4,-7.591 -2.276,-14.973 2.111,-9.039 2.256,-10.303 2.246,-19.597 -0.025,-24.729 -10.983,-51.545 -33.293,-81.472 -2.244,-3.01 -5.023,-6.97 -6.177,-8.8 -4.322,-6.857 -10.312,-14.968 -16.639,-22.528 -7.177,-8.577 -4.861,-10.281 5.166,-3.8 4.117,2.661 5.062,2.258 6.731,-2.876 2.503,-7.697 9.878,-14.235 19.821,-17.572 2.641,-0.886 3.375,-0.94 12.94,-0.952 l 10.14,-0.011 0.76,-0.939 c 4.446,-5.491 -17.119,-27.132 -46.668,-46.832 -35.687,-23.792 -62.077,-35.56 -75.772,-33.789 -10.413,1.347 -14.802,4.537 -14.799,10.756 0.002,2.925 0.983,4.825 2.67,5.17 0.621,0.127 2.749,0.424 4.729,0.66 16.714,1.992 36.621,9.825 39.597,15.58" data-darkreader-inline-fill=""></path>
    <path id="SvgjsPath1033" style="display: inline; fill: rgb(255, 215, 50); fill-opacity: 1; --darkreader-inline-fill: #ffd93d;" d="m 272.6,80.8 c -7.086,-2.38 -7.731,-2.175 -9.405,3 -2.332,7.205 -7.01286,13.67825 -11.795,16.309 -3.88686,2.13825 -3.77359,2.49157 2.87,8.925 7.45541,7.21957 5.898,7.347 15.612,-1.266 8.941,-7.927 12.22548,-12.70892 13.395,-19.503 M 253.769,76.328 c -0.343,0.401 -1.237,2.226 -1.986,4.057 -1.557,3.804 -5.189,10.375 -7.163,12.961 -2.681,3.512 -2.883,4.825 -0.989,6.418 2.344,1.973 3.715,1.432 4.971,-1.964 0.407,-1.1 2.091,-3.98 3.741,-6.4 5.956,-8.733 7.549,-13.034 5.531,-14.93 -1.147,-1.078 -3.242,-1.15 -4.105,-0.142" data-darkreader-inline-fill=""></path>
    <path style="display: inline; fill: rgb(247, 211, 120); fill-opacity: 1; --darkreader-inline-fill: #f7d170;" d="M 298.71137,149.60603 C 290.45472,146.1564 245.90688,120.3906 223.377,112.711 c -16.70809,-2.96702 -42.71346,-7.71525 -53.777,1.684 -1.21,1.028 -3.21,2.607 -4.445,3.509 -6.015,4.394 -15.159,22.641 -15.154,30.241 0.0216,26.99214 25.44412,86.5296 46.315,111.3 7.098,8.425 1.098,7.367 -14.864,-2.62 -28.68253,-17.94465 -40.36277,-21.25661 -43.823,-23.602 -7.61868,-5.1621 -10.85526,14.85323 -35.429,24.439 -24.085879,9.39822 -40.414783,-45.34678 -41.083,-47.626 -1.166,-3.977 -4.657,-4.073 -12.005,-0.331 -6.378,3.248 -7.002,4.394 -5.578,10.242 1.9,7.804 10.621,22.56 23.555,39.853 3.291,4.4 8.384,11.24 11.318,15.2 9.506,12.829 25.344,29.987 34.193,37.042 4.506,3.592 4.635,3.546 8.108,-2.904 16.91849,-31.42296 59.17093,-23.76942 69.331,-21.405 7.917,1.843 14.412,3.84 16.938,5.207 74.61705,40.39794 104.77175,35.16139 122.223,30.379 12.57105,-1.15376 24.77207,-10.7983 35.251,-17.571 2.681,-1.947 2.894,-2.721 2.203,-7.999 -0.609,-4.652 -0.54,-5.509 0.901,-11.197 7.212,-28.473 -3.028,-61.416 -30.644,-98.589 -2.191,-2.95 -4.997,-6.893 -6.235,-8.763 -0.39174,-0.59162 -12.1253,-17.78536 -31.912,-29.513" id="SvgjsPath1032" sodipodi:nodetypes="ccsccccccsscccccccccsccsc" data-darkreader-inline-fill=""></path>
    <path style="display: inline; fill: rgb(44, 6, 5); fill-opacity: 1; --darkreader-inline-fill: #d9d5d0;" d="m 247.28,152.968 c 2.486,0.312 5.78,0.686 7.32,0.831 21.985,2.073 54.149,21.727 71.078,43.434 14.733,18.89 23.022,44.468 20.345,62.777 -1.531,10.468 -12.648,26.856 -21.303,31.404 -8.399,4.414 -15.77,4.912 -38.12,2.574 -31.286,-3.271 -62.348,-31.165 -74.64,-67.027 -4.619,-13.475 -3.685,-32.763 2.659,-54.954 3.457,-12.095 5.456,-16.398 8.299,-17.868 3.114,-1.61 15.949,-2.228 24.362,-1.171 m 114.10902,156.74364 c 1.22189,2.3352 0.35889,3.49852 -3.16711,5.92719 -10.97286,7.70924 -9.19772,7.02656 -17.71514,8.01845 2.76274,-6.97439 4.28393,-7.16382 13.09885,-13.80888 4.82966,-2.9354 5.63972,-2.2625 7.53978,-0.44127" id="SvgjsPath1031" sodipodi:nodetypes="ccccccccccccccc" data-darkreader-inline-fill=""></path>
    <path id="SvgjsPath1030" style="display: inline; fill: rgb(248, 230, 149); fill-opacity: 1; fill-rule: nonzero; --darkreader-inline-fill: #f7e285;" d="m 248.619,55.682 c -2.286,1.967 -1.255,4.487 2.725,6.658 5.006,2.73 6.421,3.351 11.633,5.103 16.78029,8.323863 35.69225,21.07673 51.223,32.045 10.401,7.51 12.351,8.568 21.6,11.721 6.158,2.099 7.199,2.221 9.4,1.104 15.78296,-8.00907 -55.53218,-36.836818 -75.713,-51.879 -5.529,-4.528 -17.863,-7.336 -20.868,-4.752 m -63.45424,73.77831 c -4.395,1.12 -10.30618,5.88641 -12.94218,8.75841 -4.555,4.962 -3.66105,11.5466 -2.80605,16.3216 2.06311,13.6246 4.48102,3.25338 9.26994,14.95249 4.79657,7.07546 12.92377,-20.47305 11.09116,-30.72205 M 93.3,272.253 c -2.085,0.892 1.217,7.126 6.668,12.588 2.328,2.332 5.261,5.418 6.519,6.857 7.398,8.466 19.595,4.681 19.233,-5.969 -0.223,-6.57 -4.658,-9.655 -14.52,-10.1 -4.131,-0.187 -6.145,-0.446 -7,-0.901 -2.765,-1.473 -9.61,-3.027 -10.9,-2.475 m 212.47626,43.91266 c 8.58716,1.41517 20.50274,-6.55266 18.47274,-10.28266 -1.03378,-2.40861 -2.93699,-4.57371 -3.449,-7.181 0,-1.201 -4.387,-1.887 -5.956,-0.932 -9.27846,1.30998 -16.16939,9.43527 -13.91909,13.29542 M 174.5776,179.36554 c -4.555,4.962 0.23663,3.75123 1.09163,8.52623 4.25556,2.90597 13.00721,9.34352 8.05192,-5.99757" sodipodi:nodetypes="cccccccccccccccccccccccccccc" data-darkreader-inline-fill=""></path>
    <path id="SvgjsPath1029" d="m 234.503,71.612 c -3.32919,1.335114 -1.96109,6.81205 -7.664,13.311 -3.344,3.81 -3.125,4.186 4.561,7.858 5.331,2.547 7.219,2.999 8.407,2.013 3.95104,-4.94301 6.9431,-10.54746 10.298,-15.893 4.85501,-6.480453 -11.721,-8.535367 -15.602,-7.289 m -9.891,90.14 c -2.987,2.987 -6.843,28.745 -5.816,38.848 3.458,33.997 29.282,68.831 58.204,78.511 88.11743,29.48812 67.54232,-96.01069 -27.492,-116.752 -7.699,-1.681 -23.439,-2.064 -24.896,-0.607 M 80.741,179.02 c -10.057848,2.66811 -14.309543,1.31902 -14.957,3.901 -0.536,2.136 5.325,25.292 6.955,27.479 3.307166,2.31919 15.341461,-7.40942 19.085,-9.416 10.54855,-4.58343 2.358507,-10.83895 -1.173,-18.297 -2.624,-5.653 -2.538,-5.621 -9.91,-3.667" stroke="none" fill="#3ecfb1" fill-rule="evenodd" style="display: inline; --darkreader-inline-fill: #279d8a; --darkreader-inline-stroke: none;" inkscape:label="path1" sodipodi:nodetypes="ccccccccccccccccc" data-darkreader-inline-fill="" data-darkreader-inline-stroke=""></path>
    <path id="SvgjsPath1028" d="m 257.311,179.82 c -8.271,4.121 -12.913,15.997 -9.757,24.959 7.947,22.571 28.632,46.129 44.046,50.165 12.782,3.346 20.209,2.27 21.006,-3.044 0.157,-1.045 0.408,-1.9 0.558,-1.9 3.86605,-11.002 -2.95994,-24.1823 -5.963,-34.6 -3.565,-12.982 -14.545,-25.174 -28.717,-31.884 -9.989,-4.73 -16.736,-5.908 -21.173,-3.696 m -19.34705,52.34759 c -1.42689,6.33176 6.45282,18.03463 16.47411,12.40791 4.92714,-4.27695 -1.77711,-9.75558 -2.64911,-11.22958 -0.80112,-1.90661 -7.78176,-6.73629 -9.92731,-5.07602 m 12.47992,22.75157 c -0.608,0.607 -0.19045,4.10121 3.72593,3.8307 2.57738,-0.17803 2.53855,-4.46624 1.52655,-4.85424 -0.783,-0.301 -3.09827,-1.79916 -5.25248,1.00201" stroke="none" fill="#bcfbe5" fill-rule="evenodd" style="display: inline; fill: rgb(131, 255, 213); fill-opacity: 1; --darkreader-inline-fill: #75ffd0; --darkreader-inline-stroke: none;" sodipodi:nodetypes="ccccsccccccccscc" data-darkreader-inline-fill="" data-darkreader-inline-stroke=""></path>
    <path id="SvgjsPath1027" d="m 270.70929,192.00027 c -8.271,4.121 -4.1432,9.17605 -0.9872,18.13805 9.8418,9.30736 9.95736,8.35434 18.30891,13.25161 6.18509,4.23155 15.54589,5.26825 13.41904,-1.94728 -3.90525,-13.24894 -3.85747,-11.83921 -9.01635,-19.12217 -9.989,-4.73 -17.04379,-12.53221 -21.48079,-10.32021 m 25.74756,44.0786 c -0.24259,5.0528 4.43806,5.38014 8.35444,5.10963 2.57738,-0.17803 4.24378,-6.71959 1.64835,-9.78725 -4.25438,-2.37164 -9.37111,-1.06834 -10.00279,4.29069" stroke="none" fill="#bcfbe5" fill-rule="evenodd" style="display: inline; fill: rgb(255, 255, 255); fill-opacity: 1; --darkreader-inline-fill: var(--darkreader-text-ffffff, #e8e6e3); --darkreader-inline-stroke: none;" sodipodi:nodetypes="cccscccscc" inkscape:label="path2" data-darkreader-inline-fill="" data-darkreader-inline-stroke=""></path>
  </g>
</svg><style>@media (prefers-color-scheme: light) { :root { filter: none; } }
@media (prefers-color-scheme: dark) { :root { filter: none; } }
</style></svg>